<?xml version="1.0" standalone="no"?>
<!DOCTYPE svg PUBLIC "-//W3C//DTD SVG 20010904//EN" "http://www.w3.org/TR/2001/REC-SVG-20010904/DTD/svg10.dtd">
<!-- Created using Krita: https://krita.org -->
<svg xmlns="http://www.w3.org/2000/svg" 
    xmlns:xlink="http://www.w3.org/1999/xlink"
    xmlns:krita="http://krita.org/namespaces/svg/krita"
    xmlns:sodipodi="http://sodipodi.sourceforge.net/DTD/sodipodi-0.dtd"
    width="597.024pt"
    height="283.68pt"
    viewBox="0 0 597.024 283.68">
<defs/>
<path id="path79174" transform="matrix(0.750001299736799 0 0 0.750001299736799 291.244907221423 209.45481142034)" fill="#00aa9f" fill-rule="evenodd" stroke-opacity="0" stroke="#000000" stroke-width="0" stroke-linecap="square" stroke-linejoin="bevel" d="M347.387 0C248.896 0.2017 150.406 0.40339 51.9151 0.60509C34.6101 27.5537 17.305 54.5023 0 81.4509C135.006 81.4168 270.012 81.3826 405.019 81.3485C385.808 54.2323 366.597 27.1162 347.387 0Z" sodipodi:nodetypes="ccccc"/><path id="path79177" transform="matrix(0.750001299736799 0 0 0.750001299736799 175.026745817744 209.562279106579)" fill="#0e0b62" fill-rule="evenodd" stroke-opacity="0" stroke="#000000" stroke-width="0" stroke-linecap="square" stroke-linejoin="bevel" d="M54.5734 0C36.3822 27.1872 18.1911 54.3743 0 81.5615C42.3114 81.5331 84.6228 81.5046 126.934 81.4762C144.756 54.4053 162.578 27.3344 180.399 0.26354C138.457 0.17564 96.5154 0.08785 54.5734 0Z" sodipodi:nodetypes="ccccc"/><path id="path79178" transform="matrix(0.750001299736799 0 0 0.750001299736799 128.160784599999 80.6659157318373)" fill="#2d3290" fill-rule="evenodd" stroke-opacity="0" stroke="#000000" stroke-width="0" stroke-linecap="square" stroke-linejoin="bevel" d="M112.02 0L0.59157 0C0.38396 84.2988 0.20761 169.066 0 253.365C11.0369 253.497 21.2565 253.544 32.4687 253.259C58.9671 214.816 86.069 174.593 112.567 136.15Z" sodipodi:nodetypes="cccccc"/><path id="path79179" transform="matrix(0.750001299736799 0 0 0.750001299736799 128.663000470329 12.8948412859617)" fill="#642d92" fill-rule="evenodd" stroke-opacity="0" stroke="#000000" stroke-width="0" stroke-linecap="square" stroke-linejoin="bevel" d="M0 90.7137C68.6456 90.7137 137.291 90.7137 205.937 90.7137C227.042 60.4758 248.148 30.2379 269.254 0C201.882 0 134.51 0 67.138 0C44.7587 30.2379 22.3793 60.4758 0 90.7137Z" sodipodi:nodetypes="ccccc"/><path id="path79180" transform="matrix(0.750001299736799 0 0 0.750001299736799 3.24024846528381 12.8948412859617)" fill="#932591" fill-rule="evenodd" stroke-opacity="0" stroke="#000000" stroke-width="0" stroke-linecap="square" stroke-linejoin="bevel" d="M234.478 0C212.073 30.3443 189.668 60.6887 167.262 91.033C111.508 91.033 55.7541 91.033 0 91.033C24.6283 60.7228 49.2565 30.4126 73.8848 0.102417C127.416 0.068278 180.947 0.034139 234.478 0Z" sodipodi:nodetypes="ccccc"/><path id="path79175" transform="matrix(2.16867413326759 0 0 2.13646517745013 381.927554595848 12.9030017133752)" fill="#2ba8de" fill-rule="evenodd" stroke-opacity="0" stroke="#000000" stroke-width="0" stroke-linecap="square" stroke-linejoin="bevel" d="M1.42215 0C-1.57603 1.13969 1.21624 7.21934 0.475183 10.3641C0.619983 21.1914 0.764793 32.0187 0.909593 42.846L34.7757 92.0859L78.3264 92.0022C58.9865 64.4602 39.886 36.7017 20.3531 9.31201C15.7784 3.4078 8.73426 0.354016 1.42215 0Z" sodipodi:nodetypes="ccccccc"/><path id="path43-3" transform="matrix(2.16867413326759 0 0 2.13646517745013 215.858207463243 12.8877317471662)" fill="#0c6ec3" fill-rule="evenodd" stroke-opacity="0" stroke="#000000" stroke-width="0" stroke-linecap="square" stroke-linejoin="bevel" d="M77.9937 0.00753842C68.4077 -0.240287 59.8467 5.65035 54.8022 13.5393C36.5348 39.7139 18.2674 65.8884 0 92.063C14.5169 92.0909 29.0339 92.1188 43.5508 92.1467C54.8395 75.7333 66.1282 59.32 77.4168 42.9067C77.6064 28.6051 77.7904 14.3056 77.9937 0.00753842Z" sodipodi:nodetypes="cccccc"/>
</svg>
